<?xml version="1.0" standalone="no"?>
<!DOCTYPE svg PUBLIC "-//W3C//DTD SVG 20010904//EN"
 "http://www.w3.org/TR/2001/REC-SVG-20010904/DTD/svg10.dtd">
<svg version="1.0" xmlns="http://www.w3.org/2000/svg"
 width="260.000000pt" height="260.000000pt" viewBox="0 0 260.000000 260.000000"
 preserveAspectRatio="xMidYMid meet">
<metadata>
Created by potrace 1.11, written by Peter Selinger 2001-2013
</metadata>
<g transform="translate(0.000000,260.000000) scale(0.100000,-0.100000)"
fill="#000000" stroke="none">
<path d="M0 1300 l0 -1300 1300 0 1300 0 0 1300 0 1300 -1300 0 -1300 0 0
-1300z m476 80 c35 -102 66 -189 67 -195 2 -5 33 78 68 185 l64 195 88 3 87 3
0 -291 0 -290 -60 0 -60 0 -2 190 -3 190 -65 -190 -65 -190 -51 0 -52 0 -48
138 c-26 75 -55 157 -65 182 l-18 45 0 -182 -1 -183 -65 0 -65 0 0 283 c0 156
3 287 7 291 4 4 45 5 91 4 l84 -3 64 -185z m1329 130 l0 -55 -152 -3 -153 -3
0 -54 0 -54 138 -3 137 -3 3 -52 3 -53 -140 0 -141 0 0 -65 0 -65 155 0 155 0
0 -55 0 -55 -220 0 -220 0 0 283 c0 156 3 287 7 291 4 3 102 5 217 4 l211 -3
0 -55z m215 -158 l5 -214 28 -24 c22 -19 39 -24 83 -24 60 0 87 10 100 37 5
10 11 113 14 228 l5 210 63 3 62 3 0 -218 c0 -190 -3 -223 -19 -258 -36 -81
-109 -119 -226 -120 -82 0 -149 22 -188 63 -49 51 -57 95 -57 317 0 111 3 205
7 209 4 4 32 6 63 4 l55 -3 5 -213z m-950 -87 l46 -139 45 139 45 140 57 3
c44 2 57 0 57 -11 0 -8 -40 -122 -89 -253 -59 -159 -97 -248 -114 -265 -28
-28 -64 -39 -133 -39 l-44 0 0 54 c0 51 1 53 25 48 39 -7 74 6 80 31 4 14 -21
94 -69 222 -42 110 -76 204 -76 208 0 4 28 7 62 5 l61 -3 47 -140z"/>
</g>
</svg>
